<?xml version="1.0" standalone="no"?>
<!DOCTYPE svg PUBLIC "-//W3C//DTD SVG 20010904//EN"
 "http://www.w3.org/TR/2001/REC-SVG-20010904/DTD/svg10.dtd">
<svg version="1.0" xmlns="http://www.w3.org/2000/svg"
 width="1008.000000pt" height="1008.000000pt" viewBox="0 0 1008.000000 1008.000000"
 preserveAspectRatio="xMidYMid meet">
<metadata>
Created by potrace 1.14, written by Peter Selinger 2001-2017
</metadata>
<g transform="translate(0.000000,1008.000000) scale(0.100000,-0.100000)"
fill="#000000" stroke="none">
<path d="M595 8071 c-11 -5 -23 -7 -27 -4 -5 2 -14 1 -20 -4 -7 -4 -21 -9 -31
-10 -61 -10 -194 -87 -268 -155 -48 -45 -129 -150 -123 -160 3 -4 1 -8 -4 -8
-11 0 -44 -80 -63 -150 -21 -78 -20 -249 3 -337 10 -43 26 -88 34 -100 8 -13
12 -23 9 -23 -14 0 84 -127 139 -182 87 -87 176 -143 268 -169 23 -7 50 -15
58 -18 8 -3 546 -6 1194 -8 649 -2 1181 -5 1183 -6 1 -2 4 -944 5 -2093 l3
-2089 28 -78 c56 -161 165 -281 323 -360 91 -46 142 -60 259 -72 28 -3 55 -7
62 -10 6 -2 14 -1 17 2 3 3 27 8 52 10 55 4 155 28 204 49 66 29 105 49 118
62 7 6 17 12 21 12 6 0 89 81 126 123 6 7 27 44 47 82 39 74 72 183 83 273 4
29 7 917 7 1973 0 1115 4 1934 9 1953 21 76 84 136 160 153 43 9 3649 11 3704
1 170 -29 354 -158 420 -293 26 -52 30 -71 30 -145 0 -74 -4 -93 -31 -151 -21
-44 -51 -85 -90 -123 -32 -31 -61 -56 -65 -56 -4 0 -14 -6 -21 -14 -14 -14
-98 -59 -108 -58 -3 0 -19 -6 -36 -13 -38 -15 -109 -27 -182 -30 -29 -1 -55
-4 -58 -8 -3 -3 -18 -2 -32 3 -15 4 -36 4 -47 1 -11 -4 -31 -6 -45 -4 -50 6
-149 5 -159 -1 -6 -4 -11 -3 -11 2 0 6 -13 7 -33 3 -18 -5 -41 -5 -52 -1 -11
4 -27 4 -36 -1 -9 -5 -19 -6 -22 -3 -3 3 -32 5 -64 5 -32 -1 -74 -1 -93 -1
-19 0 -64 0 -100 -1 -36 0 -71 0 -77 0 -24 1 -77 2 -110 1 -10 0 -31 0 -48 1
-16 1 -37 1 -45 0 -8 -1 -24 -1 -35 -1 -11 1 -26 1 -32 1 -24 -2 -38 -2 -98
-2 -113 1 -130 1 -195 0 -36 0 -71 0 -77 0 -32 2 -104 2 -135 1 -7 -1 -40 -1
-73 -1 -33 1 -76 1 -95 1 -19 0 -62 0 -95 1 -33 0 -64 0 -70 -1 -5 -1 -14 -1
-20 0 -5 1 -32 1 -60 0 -59 -1 -83 -1 -169 1 -35 1 -69 -2 -75 -5 -6 -4 -11
-3 -11 2 0 5 -16 6 -38 2 -20 -3 -49 -3 -64 1 -16 4 -30 3 -33 -1 -3 -5 -18
-5 -33 -1 -15 5 -36 5 -47 1 -11 -4 -32 -4 -47 1 -15 4 -30 4 -33 -1 -3 -5
-18 -5 -34 0 -16 4 -31 6 -34 4 -2 -2 -35 -6 -73 -9 -38 -2 -83 -7 -101 -10
-73 -14 -217 -78 -242 -109 -8 -9 -17 -16 -22 -16 -9 0 -89 -78 -124 -122 -42
-52 -81 -126 -105 -205 -25 -79 -33 -219 -19 -308 6 -33 12 -71 14 -85 2 -14
4 -25 5 -25 1 0 3 -16 5 -35 3 -19 7 -46 10 -60 3 -14 9 -50 15 -80 6 -30 12
-66 15 -80 3 -14 9 -50 15 -80 12 -65 13 -72 33 -170 9 -41 18 -86 20 -100 3
-14 14 -74 26 -135 11 -60 22 -121 25 -135 21 -120 75 -309 123 -430 41 -106
160 -339 213 -420 27 -41 53 -82 57 -90 3 -8 9 -17 13 -20 3 -3 21 -26 40 -52
18 -27 36 -48 40 -48 3 0 14 -13 23 -30 38 -64 351 -380 377 -380 5 0 10 -4
12 -8 2 -5 35 -31 73 -60 39 -28 75 -56 82 -62 7 -5 14 -10 17 -10 2 0 34 -18
70 -40 62 -38 153 -83 259 -130 62 -27 268 -86 327 -94 25 -3 56 -9 70 -12 39
-8 294 -15 540 -13 124 0 232 1 240 0 8 0 44 0 80 0 36 1 72 1 80 0 8 0 116 0
240 0 124 1 232 1 240 0 8 0 116 0 240 0 124 1 232 1 240 0 8 0 116 0 240 0
124 1 232 1 240 0 55 -2 250 0 275 4 181 24 292 79 417 210 26 28 48 53 48 57
0 4 6 13 14 20 17 18 84 157 90 189 2 13 5 24 6 24 4 0 11 47 16 110 7 85 7
84 0 115 -3 14 -8 41 -10 60 -9 70 -85 250 -106 250 -5 0 -12 9 -15 20 -4 12
-40 54 -80 94 -130 128 -267 181 -480 185 -129 2 -209 2 -222 0 -4 -1 -10 -1
-13 0 -14 5 -200 5 -200 1 0 -3 -35 -4 -77 -2 -100 3 -185 4 -198 2 -5 -1 -25
-1 -44 0 -83 5 -161 5 -161 0 0 -6 -170 -3 -176 3 -3 2 -22 1 -44 -3 -22 -4
-40 -5 -40 -1 0 3 -49 6 -110 6 -60 0 -110 -2 -110 -5 0 -3 -35 -4 -77 -2
-100 3 -185 4 -198 2 -5 -1 -25 -1 -44 0 -83 5 -161 5 -161 0 0 -3 -43 -3 -96
0 -53 3 -98 2 -101 -3 -2 -4 -8 -5 -12 -3 -4 3 -49 7 -100 10 -226 14 -402 95
-559 256 -87 88 -182 244 -217 355 -9 28 -20 59 -25 70 -7 18 -35 117 -46 166
-2 10 -6 27 -8 38 -2 10 -7 35 -10 55 l-6 36 908 1 c499 0 931 2 961 4 142 9
301 32 431 60 14 4 35 8 47 11 12 2 34 9 48 14 14 5 25 7 25 4 0 -2 14 2 30
11 17 9 30 13 30 11 0 -3 20 3 45 14 25 11 46 19 48 19 14 -2 251 111 255 123
2 4 8 8 14 8 14 0 188 121 278 194 141 114 311 300 383 421 34 57 134 270 155
330 47 136 64 204 86 344 19 119 11 468 -10 503 -4 6 -8 24 -9 42 -10 95 -110
350 -198 504 -27 48 -53 89 -58 90 -5 2 -9 8 -9 14 0 10 -12 25 -83 113 -78
97 -239 251 -322 310 -16 11 -33 25 -39 31 -32 30 -209 139 -299 182 -80 39
-297 124 -310 121 -1 0 -14 2 -28 6 -14 3 -34 8 -45 10 -10 2 -19 4 -19 6 0 1
-9 3 -20 5 -11 2 -40 8 -65 13 -25 5 -63 12 -85 15 -23 4 -50 8 -62 10 -12 3
-57 8 -100 12 -43 3 -100 9 -128 12 -82 9 -7488 11 -7510 3z"/>
</g>
</svg>
